<svg width="30" height="30" viewBox="0 0 30 30" fill="none" xmlns="http://www.w3.org/2000/svg">
<g clip-path="url(#clip0)">
<path d="M24.4652 20.725V20.73C24.3037 21.6245 23.5452 25.0465 20.6997 29.2115C20.5592 29.4171 20.3476 29.5633 20.1057 29.622C19.4932 29.77 18.0502 30 15.0002 30C11.9502 30 10.5072 29.77 9.89466 29.622C9.6527 29.5633 9.44107 29.4171 9.30066 29.2115C6.45516 25.0465 5.69666 21.6245 5.53516 20.73L7.45866 18.73L22.1772 18.726L24.4652 20.725Z" fill="#E57E25"/>
<path d="M24.1851 12.98C24.9583 14.1208 25.5299 15.3858 25.8751 16.72C26.1278 17.7105 25.9993 18.7597 25.5151 19.66C25.1173 20.2822 24.5428 20.7715 23.8651 21.065C22.2401 21.8 19.8851 21.83 18.5751 20.45C18.5361 20.4085 18.4976 20.366 18.4606 20.3215C18.3555 20.198 18.1965 20.1339 18.0351 20.1501C17.8738 20.1663 17.7306 20.2606 17.6521 20.4025C17.1324 21.3853 16.1118 22 15.0001 22C13.8884 22 12.8678 21.3853 12.3481 20.4025C12.2696 20.2606 12.1264 20.1663 11.9651 20.1501C11.8037 20.1339 11.6447 20.198 11.5396 20.3215C11.5026 20.366 11.4641 20.4085 11.4251 20.45C10.1151 21.83 7.7601 21.8 6.1351 21.065C5.45744 20.7715 4.88289 20.2822 4.4851 19.66C4.00091 18.7597 3.87243 17.7105 4.1251 16.72C4.38038 15.6712 4.79521 14.6678 5.3551 13.745L8.0836 11.625L21.7916 11.125L24.1851 12.98Z" fill="#F0C419"/>
<path d="M19.6253 8.23499C21.0075 8.83303 22.2402 9.72945 23.2353 10.86C23.5448 11.1906 23.7967 11.5709 23.9803 11.985C24.0803 12.23 24.3253 12.7 24.1853 12.98C24.1401 13.067 24.0631 13.1333 23.9703 13.165C23.8515 13.2025 23.724 13.2025 23.6053 13.165C23.1553 13.045 22.7103 12.9 22.2603 12.765C21.9682 12.6409 21.6386 12.6391 21.3453 12.76C20.7503 13.115 21.1653 14.045 21.2053 14.555C21.2503 15.18 20.9353 16.22 20.0953 15.945C19.7667 15.7974 19.5023 15.5365 19.3503 15.21C19.0653 14.71 18.8403 14.17 18.5203 13.69C18.2183 13.1898 17.7461 12.8152 17.1903 12.635C16.6196 12.4646 16.0064 12.7062 15.7053 13.22C15.3953 13.865 15.8153 14.65 15.6003 15.33C15.4845 15.7216 15.1537 16.0116 14.7503 16.075C14.3424 16.1246 13.9551 15.8831 13.8203 15.495C13.7003 15.085 13.9253 14.665 13.9753 14.24C14.0459 13.4994 13.5731 12.8155 12.8553 12.62C12.2548 12.4954 11.639 12.7489 11.3003 13.26C10.9053 13.875 11.1353 14.73 11.3053 15.385C11.4822 15.8723 11.4588 16.4099 11.2403 16.88C10.9868 17.3186 10.4815 17.5462 9.98517 17.4453C9.48881 17.3444 9.1124 16.9377 9.05025 16.435C8.94525 15.6 9.73025 14.765 9.43025 13.98C9.27852 13.6228 8.94982 13.372 8.56525 13.32C8.12784 13.2722 7.69225 13.4247 7.38025 13.735C7.18525 13.915 7.01025 14.115 6.80525 14.285C6.66445 14.4133 6.49176 14.5014 6.30525 14.54C5.91364 14.5726 5.54958 14.3361 5.42025 13.965C5.39106 13.8941 5.36928 13.8204 5.35525 13.745C5.31015 13.4941 5.32039 13.2365 5.38525 12.99C5.51402 12.5119 5.72555 12.0601 6.01025 11.655C6.52637 10.9482 7.1607 10.3359 7.88525 9.84499C8.34866 9.52076 8.82937 9.22198 9.32525 8.94999C9.92437 8.61534 10.5478 8.32619 11.1903 8.08499L19.6253 8.23499Z" fill="#805333"/>
<path d="M13.9153 10.215C13.9103 10.215 13.9003 10.21 13.8953 10.21C12.7739 9.83782 11.8174 9.08637 11.1903 8.085C10.1553 6.41 10.2503 4.26499 11.7053 2.95499C12.0472 2.64095 12.4557 2.40846 12.9003 2.27499C13.6262 2.07977 14.4016 2.2271 15.0053 2.67499C15.3239 2.90779 15.5714 3.22459 15.7203 3.58999C15.7773 3.72344 15.8883 3.82637 16.0257 3.87311C16.163 3.91985 16.3138 3.90599 16.4403 3.83499C16.7796 3.63757 17.168 3.54047 17.5603 3.55499C18.3117 3.57435 19.0139 3.93281 19.4703 4.52999C19.7434 4.91057 19.9264 5.34828 20.0053 5.80999C20.1624 6.63796 20.0281 7.49477 19.6253 8.235C19.1209 9.13013 18.3172 9.81882 17.3553 10.18" fill="#DF4D60"/>
<path d="M15.9712 4.3455C15.695 4.3455 15.4712 4.12164 15.4712 3.8455C15.4712 2.98 15.9077 1.4455 17.1107 0.763497C18.1342 0.183497 19.4182 0.348497 20.9262 1.2525C21.1561 1.3974 21.2282 1.69945 21.0885 1.93258C20.9488 2.1657 20.6484 2.2445 20.4122 2.11C19.2362 1.405 18.2912 1.245 17.6037 1.634C16.7482 2.1185 16.4712 3.334 16.4712 3.8455C16.4712 4.12164 16.2473 4.3455 15.9712 4.3455Z" fill="#24AE5F"/>
<path d="M15.3002 10.754C14.0015 10.7641 12.7039 10.677 11.4182 10.4935C11.1457 10.4488 10.961 10.1915 11.0057 9.919C11.0504 9.64644 11.3077 9.46176 11.5802 9.5065C14.043 9.83172 16.5376 9.8366 19.0017 9.521C19.1789 9.49822 19.3548 9.57171 19.4631 9.71379C19.5715 9.85586 19.5958 10.0449 19.5269 10.2098C19.458 10.3746 19.3064 10.4902 19.1292 10.513C17.8593 10.6745 16.5804 10.755 15.3002 10.754Z" fill="#603E26"/>
<path d="M11.5001 28.5C11.3328 28.5002 11.1765 28.4167 11.0836 28.2775C10.0581 26.7395 9.06711 23.783 9.02511 23.658C8.96866 23.4883 9.00704 23.3014 9.12578 23.1676C9.24452 23.0339 9.42559 22.9737 9.60078 23.0096C9.77597 23.0456 9.91866 23.1723 9.97511 23.342C9.98461 23.3715 10.9656 26.2965 11.9166 27.7225C12.019 27.876 12.0286 28.0734 11.9414 28.2361C11.8543 28.3988 11.6846 28.5002 11.5001 28.5Z" fill="#D25627"/>
<path d="M13.5 28C13.2239 28 13 27.7761 13 27.5V24C13 23.7239 13.2239 23.5 13.5 23.5C13.7761 23.5 14 23.7239 14 24V27.5C14 27.7761 13.7761 28 13.5 28Z" fill="#D25627"/>
<path d="M18.5001 28.5C18.3157 28.4999 18.1464 28.3983 18.0595 28.2357C17.9726 28.0731 17.9822 27.8759 18.0846 27.7225C19.0346 26.295 20.0166 23.3725 20.0261 23.342C20.1133 23.0797 20.3967 22.9377 20.6591 23.025C20.9214 23.1123 21.0633 23.3957 20.9761 23.658C20.9341 23.783 19.9431 26.7395 18.9176 28.2775C18.8245 28.417 18.6677 28.5005 18.5001 28.5Z" fill="#D25627"/>
<path d="M16.5 28C16.2239 28 16 27.7761 16 27.5V24C16 23.7239 16.2239 23.5 16.5 23.5C16.7761 23.5 17 23.7239 17 24V27.5C17 27.7761 16.7761 28 16.5 28Z" fill="#D25627"/>
<path d="M12.3539 5.45C12.1902 5.44998 12.0368 5.36976 11.9433 5.23524C11.8499 5.10073 11.8283 4.92898 11.8854 4.7755C11.9898 4.45868 12.1659 4.1702 12.3999 3.9325C12.6944 3.63688 13.1088 3.49355 13.523 3.544C13.7023 3.56771 13.8549 3.68646 13.9219 3.85451C13.9889 4.02257 13.9599 4.21371 13.846 4.35432C13.7322 4.49493 13.5513 4.56307 13.373 4.5325C13.2672 4.53251 13.1661 4.5761 13.0934 4.653C12.9688 4.78787 12.8758 4.94875 12.8209 5.124C12.7484 5.31937 12.5623 5.44927 12.3539 5.45Z" fill="#FB7B76"/>
</g>
<defs>
<clipPath id="clip0">
<rect width="30" height="30" fill="white"/>
</clipPath>
</defs>
</svg>
