<svg width="30" height="30" viewBox="0 0 30 30" fill="none" xmlns="http://www.w3.org/2000/svg">
<g clip-path="url(#clip0)">
<path d="M28.3124 17.6829C28.3124 18.2251 28.0929 18.7154 27.7379 19.0704C27.3824 19.4254 26.892 19.6449 26.3504 19.6449H3.64951C2.56635 19.6449 1.6875 18.7667 1.6875 17.6829C1.6875 17.3926 1.75031 17.1175 1.86316 16.8699C1.96137 16.6546 2.09678 16.4607 2.26201 16.2954C2.61756 15.9404 3.10793 15.7209 3.64951 15.7209H26.3505C27.144 15.7209 27.8276 16.1917 28.1368 16.8699C28.2496 17.1175 28.3124 17.3926 28.3124 17.6829Z" fill="#884D00"/>
<path d="M28.137 16.8699C28.0387 17.0846 27.9028 17.2791 27.7381 17.4438C27.3826 17.7988 26.8922 18.0183 26.3506 18.0183H3.64963C2.8568 18.0183 2.17312 17.5475 1.86328 16.87C1.96148 16.6547 2.09684 16.4607 2.26213 16.2954C2.61768 15.9405 3.10805 15.7209 3.64963 15.7209H26.3506C27.144 15.7209 27.8277 16.1917 28.137 16.8699Z" fill="#AA6100"/>
<path d="M30 21.2287C30 23.7567 28.8296 25.6351 26.9378 26.8811C25.0453 28.1276 22.4314 28.7418 19.5442 28.7418H10.4558C4.68147 28.7418 0 26.2846 0 21.2287C0 20.9469 0.0701367 20.6798 0.196992 20.4395C0.304336 20.2346 0.45252 20.0498 0.632461 19.8924C1.02281 19.5503 1.56316 19.3386 2.159 19.3386H27.8411C28.7113 19.3386 29.4615 19.7899 29.8031 20.4395C29.9299 20.6799 30 20.947 30 21.2287Z" fill="#FFA733"/>
<path d="M29.8028 20.4395C29.3954 22.1228 28.3745 23.434 26.9376 24.3806C25.0451 25.6271 22.4312 26.2413 19.544 26.2413H10.4555C5.37523 26.2413 1.14148 24.3397 0.196777 20.4395C0.304121 20.2346 0.452305 20.0498 0.632246 19.8925C1.0226 19.5503 1.56295 19.3387 2.15879 19.3387H27.8408C28.7111 19.3387 29.4612 19.79 29.8028 20.4395Z" fill="#FFB655"/>
<path d="M23.3428 14.8976L18.2674 19.973C18.1399 20.0999 18.0039 20.2121 17.86 20.3091C16.7854 21.0366 15.3131 20.9251 14.3611 19.973L9.28564 14.8976H23.3428Z" fill="#EEBF00"/>
<path d="M23.3429 14.8976L18.2674 19.973C18.14 20.0999 18.0039 20.2121 17.86 20.3091C17.4728 20.1773 17.1093 19.9572 16.8007 19.648L12.0503 14.8976H23.3429Z" fill="#FFD422"/>
<path d="M29.4303 15.6056C29.4303 15.8715 29.3864 16.1435 29.2913 16.4088C28.9186 17.4487 27.9209 17.8524 27.1433 17.2779L26.2108 16.5894C25.56 16.1082 24.73 16.3052 24.2591 17.0529L24.2195 17.1157C23.7675 17.8341 22.9796 18.0476 22.3361 17.6268L20.2479 16.2612C19.7661 15.9465 19.1885 15.9807 18.7324 16.3521L17.0589 17.7134C16.5783 18.1043 15.966 18.1208 15.4726 17.7554L13.5637 16.3405C13.0757 15.9789 12.4708 15.9904 11.992 16.371L10.2539 17.7512C9.78729 18.1214 9.20059 18.1427 8.71819 17.8079L6.46772 16.2442C6.02493 15.9368 5.49131 15.9282 5.04243 16.2216L2.94325 17.5945C1.54538 17.7744 0.865396 16.748 0.865396 16.748C0.530591 16.1661 0.497017 15.4764 0.678189 14.8976C0.893462 14.206 1.41495 13.673 2.09311 13.673H27.9075C28.5723 13.673 29.1035 14.1981 29.3219 14.8945C29.3925 15.1177 29.4303 15.3587 29.4303 15.6056Z" fill="#6DC82A"/>
<path d="M29.3218 14.8945C29.3127 14.925 29.3023 14.9549 29.2914 14.9854C28.9187 16.0259 27.921 16.4296 27.1434 15.8551L26.2109 15.1659C25.5601 14.6854 24.7301 14.8823 24.2592 15.6295L24.2195 15.6929C23.7676 16.4113 22.9796 16.6247 22.3362 16.2039L20.248 14.8384C19.7662 14.5231 19.1886 14.5579 18.7325 14.9293L17.059 16.2905C16.5784 16.6815 15.9661 16.6973 15.4727 16.332L13.5638 14.9171C13.0758 14.5554 12.4709 14.5676 11.9921 14.9476L10.2539 16.3283C9.78732 16.6979 9.20063 16.7198 8.71822 16.385L6.46775 14.8213C6.02496 14.5133 5.49135 14.5048 5.04246 14.7987L2.94328 16.1709C1.54541 16.3515 0.86543 15.3244 0.86543 15.3244C0.786738 15.1872 0.72457 15.0439 0.678223 14.8975C0.893496 14.2059 1.41498 13.6729 2.09314 13.6729H27.9076C28.5722 13.6729 29.1035 14.198 29.3218 14.8945Z" fill="#7ED63E"/>
<path d="M28.9094 12.4178C28.9137 12.6209 28.8869 12.8166 28.8344 13.0014C28.5984 13.8235 27.8409 14.4249 26.9432 14.4249C23.4181 14.4249 14.029 14.3456 12.6129 14.3926C12.5812 14.3938 12.5495 14.395 12.5183 14.3956C10.7302 14.4633 10.3228 14.7499 10.3228 15.7032V19.1911C10.3228 19.3704 10.2502 19.5332 10.1325 19.6509C10.0148 19.7686 9.85257 19.8412 9.67327 19.8412C9.31403 19.8412 9.02311 20.1321 9.02311 20.4913V22.0106C9.02311 22.1648 9.00483 22.3143 8.96944 22.4582C8.76882 23.2889 8.01923 23.9055 7.11905 23.9055H7.07089C6.04749 23.9055 5.21927 23.0742 5.22231 22.0508L5.23087 19.3009C5.23145 19.0899 5.31747 18.8984 5.45593 18.7605C5.59497 18.6221 5.78587 18.5367 5.99751 18.5367C6.42079 18.5367 6.76415 18.1934 6.76415 17.7701V15.7032C6.76415 14.9969 6.1921 14.4249 5.48587 14.4249H3.09384C2.01741 14.4249 1.11173 13.5753 1.08975 12.4989C1.06778 11.3944 1.957 10.4918 3.05663 10.4918H26.9042C27.9812 10.4918 28.8881 11.3413 28.9094 12.4178Z" fill="#FF3501"/>
<path d="M28.9097 12.4178C28.914 12.6209 28.8871 12.8166 28.8347 13.0014C25.1029 12.9978 16.1858 12.924 14.8087 12.9691C12.94 13.0307 12.5186 13.3106 12.5186 14.2803V14.3956C10.7305 14.4633 10.3231 14.7499 10.3231 15.7032V19.1911C10.3231 19.3704 10.2505 19.5332 10.1328 19.6509C10.0151 19.7686 9.85284 19.8412 9.67355 19.8412C9.31431 19.8412 9.02339 20.1321 9.02339 20.4913V22.0106C9.02339 22.1648 9.00511 22.3143 8.96972 22.4582C8.08783 22.3161 7.41511 21.5495 7.41816 20.6273L7.42671 17.878C7.4273 17.6664 7.51331 17.4755 7.65177 17.3377C7.79081 17.1992 7.98171 17.1138 8.19335 17.1138C8.61663 17.1138 8.95999 16.7705 8.95999 16.3472V14.2803C8.95999 13.5741 8.38794 13.002 7.68171 13.002H5.28968C4.21326 13.002 3.30757 12.1525 3.2856 11.076C3.28132 10.8729 3.30816 10.6772 3.36124 10.4918H26.9044C27.9815 10.4918 28.8884 11.3413 28.9097 12.4178Z" fill="#FF5023"/>
<path d="M17.6586 8.49258L13.3071 12.8459C12.871 13.282 12.3568 13.5924 11.8092 13.776C10.4589 14.2322 8.90738 13.9218 7.83277 12.8459L3.47949 8.49258H17.6586Z" fill="#EEBF00"/>
<path d="M17.6584 8.49258L13.3069 12.8459C12.8708 13.282 12.3567 13.5924 11.809 13.776C11.2619 13.5924 10.7478 13.282 10.3123 12.8459L5.95898 8.49258H17.6584Z" fill="#FFD422"/>
<path d="M30 9.10494C30 9.13728 29.9988 9.16898 29.997 9.20068C29.9732 9.6099 29.7975 9.97887 29.5255 10.2509C29.2321 10.5443 28.8272 10.7254 28.3795 10.7254H1.62047C0.725742 10.7253 0 9.99961 0 9.10494C0 7.16308 0.900176 5.70117 2.25961 4.60154C3.36287 3.70869 4.76924 3.05426 6.24152 2.57431C10.3607 1.23322 15 1.25818 15 1.25818C15 1.25818 30 1.17709 30 9.10494Z" fill="#FFA733"/>
<path d="M30.0001 9.10494C30.0001 9.13728 29.9989 9.16898 29.9971 9.20068H4.91393C4.01926 9.20068 3.29346 8.47494 3.29346 7.58021C3.29346 5.63836 4.19363 4.17644 5.55307 3.07687C5.77139 2.89998 6.00131 2.73293 6.2416 2.57431C10.3608 1.23322 15.0001 1.25818 15.0001 1.25818C15.0001 1.25818 30.0001 1.17709 30.0001 9.10494Z" fill="#FFB655"/>
<path d="M23.0626 4.09306C23.3227 4.36833 23.3104 4.80234 23.0352 5.06249C22.7599 5.32259 22.3259 5.31029 22.0658 5.03507C21.8057 4.75986 21.3269 3.80613 21.6022 3.54597C21.8775 3.28581 22.8025 3.81773 23.0626 4.09306Z" fill="#FFF5CC"/>
<path d="M19.4277 7.48206C19.5634 7.83562 19.3869 8.2323 19.0334 8.36806C18.6798 8.50382 18.2831 8.32728 18.1474 7.97372C18.0116 7.62017 17.9319 6.55605 18.2854 6.42028C18.6389 6.28458 19.2919 7.12851 19.4277 7.48206Z" fill="#FFF5CC"/>
<path d="M15.6859 4.66165C15.6859 5.0404 15.3789 5.34738 15.0002 5.34738C14.6214 5.34738 14.3145 5.04035 14.3145 4.66165C14.3145 4.2829 14.6215 3.26097 15.0002 3.26097C15.3789 3.26091 15.6859 4.2829 15.6859 4.66165Z" fill="#FFF5CC"/>
<path d="M11.9153 7.91179C11.8206 8.27847 11.4465 8.49896 11.0799 8.40427C10.7132 8.30958 10.4927 7.93552 10.5874 7.56884C10.6821 7.20216 11.2349 6.28945 11.6016 6.38413C11.9683 6.47882 12.01 7.54517 11.9153 7.91179Z" fill="#FFF5CC"/>
<path d="M8.14288 4.92481C7.97776 5.26559 7.56766 5.40809 7.22676 5.24297C6.88598 5.07785 6.74348 4.66775 6.9086 4.32685C7.07371 3.98607 7.79553 3.20009 8.13643 3.36527C8.47727 3.53045 8.30799 4.58402 8.14288 4.92481Z" fill="#FFF5CC"/>
</g>
<defs>
<clipPath id="clip0">
<rect width="30" height="30" fill="white"/>
</clipPath>
</defs>
</svg>
