<svg width="30" height="30" viewBox="0 0 30 30" fill="none" xmlns="http://www.w3.org/2000/svg">
<path d="M25.77 3.88252H4.30127L7.86804 28.8945C7.95839 29.5287 8.50236 30 9.14426 30H20.927C21.5689 30 22.1129 29.5287 22.2032 28.8945L25.77 3.88252Z" fill="#F3E8D7"/>
<path d="M22.2441 3.88252L18.5195 30H20.927C21.5689 30 22.1131 29.5287 22.2035 28.8945L25.7703 3.88252H22.2441Z" fill="#E5D8C6"/>
<path d="M23.5451 0H6.52635C6.28418 0 6.07526 0.16983 6.02618 0.406723L5.24463 4.18785H24.8269L24.0453 0.406723C23.9962 0.16983 23.7873 0 23.5451 0V0Z" fill="#464C50"/>
<path d="M24.2595 1.44379L24.0453 0.406723C23.9962 0.16983 23.7873 0 23.5451 0H20.4955L20.6618 0.80452C20.7978 1.46233 20.2946 1.77658 19.6218 1.77658H5.74296L5.24463 4.18808H24.8269L24.2595 1.44379Z" fill="#31363B"/>
<path d="M26.4137 6.28189H3.65799C3.24268 6.28189 2.90625 5.94612 2.90625 5.53162V3.54218C2.90625 3.1279 3.24291 2.7919 3.65799 2.7919H26.4137C26.8288 2.7919 27.1654 3.1279 27.1654 3.54218V5.53162C27.1654 5.94612 26.8288 6.28189 26.4137 6.28189Z" fill="#464C50"/>
<path d="M26.4137 2.7919H23.6746V3.41698C23.6746 4.60419 23.0864 5.26474 21.8968 5.26474H4.03455C3.61924 5.26474 3.28281 4.92897 3.28281 4.51469L2.90625 5.53162C2.90625 5.94612 3.24291 6.28189 3.65799 6.28189H26.4137C26.8288 6.28189 27.1654 5.94612 27.1654 5.53162V3.54218C27.1654 3.1279 26.8288 2.7919 26.4137 2.7919Z" fill="#31363B"/>
<path d="M6.75051 25.7824L4.51248 10.0887C4.46065 9.72427 4.74388 9.39835 5.11264 9.39835H24.9591C25.3276 9.39835 25.611 9.72427 25.559 10.0887L23.3212 25.7824C23.2785 26.0806 23.0228 26.3022 22.721 26.3022H7.35067C7.04887 26.3022 6.79317 26.0806 6.75051 25.7824Z" fill="#D38231"/>
<path d="M24.9591 9.39835H22.1463L19.7358 26.3022H22.721C23.0228 26.3022 23.2785 26.0806 23.3212 25.7824L25.5592 10.0887C25.6111 9.72427 25.3278 9.39835 24.9591 9.39835Z" fill="#C1752F"/>
<path d="M18.1318 14.4424C16.8001 13.1133 14.3341 13.4193 12.6242 15.1261C10.9141 16.8326 10.6075 19.2938 11.9392 20.6229C13.2709 21.952 15.7369 21.646 17.4468 19.9393C19.1569 18.2327 19.4635 15.7716 18.1318 14.4424Z" fill="#A0E557"/>
<path d="M18.1322 14.4424C17.9905 14.301 17.8354 14.1795 17.6703 14.0749C16.9025 14.4933 15.4208 15.4768 15.0018 17.0103C14.8195 17.6777 14.1733 18.4715 13.1335 19.305C12.5265 19.7919 11.9451 20.1615 11.6812 20.3224C11.7594 20.4277 11.8449 20.5284 11.9396 20.6229C12.0703 20.7534 12.2123 20.8676 12.3632 20.9669C13.2564 20.4012 15.4316 18.8823 15.8779 17.2488C16.2641 15.8354 17.9338 14.9455 18.3808 14.7297C18.3053 14.6292 18.2228 14.5331 18.1322 14.4424Z" fill="#93CC4A"/>
</svg>
