<svg width="44" height="44" viewBox="0 0 44 44" fill="none" xmlns="http://www.w3.org/2000/svg">
<g filter="url(#filter0_d)">
<rect x="4" width="36" height="36" rx="18" fill="white"/>
</g>
<g clip-path="url(#clip0)">
<path d="M30.4134 10.8351C29.3781 9.71219 27.9575 9.09375 26.413 9.09375C25.2585 9.09375 24.2012 9.45874 23.2704 10.1785C22.8008 10.5418 22.3752 10.9863 22 11.5051C21.6249 10.9865 21.1992 10.5418 20.7294 10.1785C19.7988 9.45874 18.7415 9.09375 17.587 9.09375C16.0425 9.09375 14.6218 9.71219 13.5865 10.8351C12.5635 11.9449 12 13.461 12 15.1043C12 16.7958 12.6303 18.3441 13.9836 19.9771C15.1943 21.4378 16.9342 22.9207 18.9492 24.6377C19.6372 25.2241 20.4171 25.8888 21.2268 26.5968C21.4408 26.7842 21.7153 26.8873 22 26.8873C22.2846 26.8873 22.5592 26.7842 22.7729 26.5971C23.5826 25.8889 24.363 25.224 25.0513 24.6373C27.0659 22.9205 28.8059 21.4378 30.0165 19.9769C31.3698 18.3441 32 16.7958 32 15.1042C32 13.461 31.4365 11.9449 30.4134 10.8351Z" fill="#E52A34"/>
</g>
<defs>
<filter id="filter0_d" x="0" y="0" width="44" height="44" filterUnits="userSpaceOnUse" color-interpolation-filters="sRGB">
<feFlood flood-opacity="0" result="BackgroundImageFix"/>
<feColorMatrix in="SourceAlpha" type="matrix" values="0 0 0 0 0 0 0 0 0 0 0 0 0 0 0 0 0 0 127 0"/>
<feOffset dy="4"/>
<feGaussianBlur stdDeviation="2"/>
<feColorMatrix type="matrix" values="0 0 0 0 0 0 0 0 0 0 0 0 0 0 0 0 0 0 0.25 0"/>
<feBlend mode="normal" in2="BackgroundImageFix" result="effect1_dropShadow"/>
<feBlend mode="normal" in="SourceGraphic" in2="effect1_dropShadow" result="shape"/>
</filter>
<clipPath id="clip0">
<rect x="12" y="8" width="20" height="20" fill="white"/>
</clipPath>
</defs>
</svg>
