<svg width="20" height="20" viewBox="0 0 20 20" fill="none" xmlns="http://www.w3.org/2000/svg">
<path d="M14.6333 17.5C14.5001 17.5006 14.3686 17.4691 14.25 17.4084L10 15.1834L5.75 17.4084C5.61199 17.4809 5.4564 17.5133 5.3009 17.5019C5.1454 17.4904 4.99623 17.4355 4.87036 17.3435C4.74448 17.2515 4.64695 17.126 4.58885 16.9813C4.53074 16.8366 4.5144 16.6785 4.54167 16.525L5.375 11.8334L1.94167 8.50003C1.83455 8.39313 1.75856 8.25908 1.72186 8.11227C1.68515 7.96546 1.68912 7.81142 1.73333 7.66669C1.78163 7.51859 1.87048 7.38699 1.98979 7.28683C2.1091 7.18666 2.2541 7.12195 2.40833 7.10003L7.15833 6.40836L9.25 2.13336C9.31824 1.99247 9.42478 1.87365 9.55743 1.79051C9.69007 1.70737 9.84345 1.66327 10 1.66327C10.1565 1.66327 10.3099 1.70737 10.4426 1.79051C10.5752 1.87365 10.6818 1.99247 10.75 2.13336L12.8667 6.40003L17.6167 7.09169C17.7709 7.11362 17.9159 7.17833 18.0352 7.27849C18.1545 7.37866 18.2434 7.51026 18.2917 7.65836C18.3359 7.80309 18.3398 7.95713 18.3031 8.10394C18.2664 8.25075 18.1905 8.3848 18.0833 8.49169L14.65 11.825L15.4833 16.5167C15.5131 16.6729 15.4975 16.8344 15.4384 16.9821C15.3794 17.1297 15.2793 17.2574 15.15 17.35C14.9991 17.4558 14.8174 17.5085 14.6333 17.5Z" fill="#F2B41C"/>
</svg>
