<svg width="20" height="20" viewBox="0 0 20 20" fill="none" xmlns="http://www.w3.org/2000/svg">
<path d="M10 9.16669C10.6904 9.16669 11.25 8.60704 11.25 7.91669C11.25 7.22633 10.6904 6.66669 10 6.66669C9.30964 6.66669 8.75 7.22633 8.75 7.91669C8.75 8.60704 9.30964 9.16669 10 9.16669Z" fill="#D32030"/>
<path d="M9.99999 1.66669C8.24337 1.6666 6.55771 2.35982 5.30936 3.59568C4.06102 4.83154 3.35089 6.51016 3.33333 8.26669C3.33333 12.8334 9.20833 17.9167 9.45833 18.1334C9.60927 18.2625 9.80137 18.3334 9.99999 18.3334C10.1986 18.3334 10.3907 18.2625 10.5417 18.1334C10.8333 17.9167 16.6667 12.8334 16.6667 8.26669C16.6491 6.51016 15.939 4.83154 14.6906 3.59568C13.4423 2.35982 11.7566 1.6666 9.99999 1.66669ZM9.99999 10.8334C9.42313 10.8334 8.85922 10.6623 8.37958 10.3418C7.89994 10.0213 7.5261 9.5658 7.30535 9.03285C7.08459 8.4999 7.02683 7.91345 7.13937 7.34767C7.25191 6.7819 7.5297 6.2622 7.9376 5.85429C8.3455 5.44639 8.8652 5.1686 9.43098 5.05606C9.99676 4.94352 10.5832 5.00128 11.1162 5.22204C11.6491 5.44279 12.1046 5.81663 12.4251 6.29627C12.7456 6.77592 12.9167 7.33983 12.9167 7.91669C12.9167 8.69024 12.6094 9.4321 12.0624 9.97908C11.5154 10.5261 10.7735 10.8334 9.99999 10.8334Z" fill="#D32030"/>
</svg>
