<svg width="30" height="30" viewBox="0 0 30 30" fill="none" xmlns="http://www.w3.org/2000/svg">
<g clip-path="url(#clip0)">
<path d="M22.366 14.922C22.2208 14.846 22.0455 14.8572 21.9112 14.9506L19.7013 16.4878C19.5832 16.5699 19.5127 16.705 19.5127 16.8489V23.4467C19.5127 24.2986 20.2058 24.9914 21.0574 24.9914C21.9091 24.9914 22.6022 24.2986 22.6022 23.4467V15.3118C22.6022 15.1481 22.5111 14.9977 22.366 14.922Z" fill="#FFEBA1"/>
<path d="M17.4578 18.3362C17.3124 18.2602 17.1373 18.2714 17.0027 18.3648L14.7931 19.902C14.6748 19.9842 14.6045 20.1192 14.6045 20.2632V22.5138C14.6045 23.3655 15.2973 24.0585 16.1492 24.0585C17.0009 24.0585 17.694 23.3655 17.694 22.5138V18.726C17.694 18.5621 17.6029 18.412 17.4578 18.3362Z" fill="#FFEBA1"/>
<path d="M9.2551 24.0418C9.10976 23.966 8.93467 23.977 8.80008 24.0706L6.59045 25.6076C6.47235 25.69 6.40186 25.8248 6.40186 25.9688V28.4553C6.40186 29.307 7.09468 30 7.94658 30C8.79825 30 9.49131 29.307 9.49131 28.4553V24.4318C9.49131 24.2679 9.40021 24.1178 9.2551 24.0418Z" fill="#FFEBA1"/>
<path d="M22.3659 14.922C22.2208 14.846 22.0455 14.8572 21.9111 14.9506L21.0574 15.5445V23.4467C21.0574 24.0173 20.7464 24.5163 20.2852 24.7836C20.5124 24.9157 20.7761 24.9914 21.0574 24.9914C21.9091 24.9914 22.6021 24.2986 22.6021 23.4467V15.3118C22.6021 15.1481 22.511 14.9977 22.3659 14.922Z" fill="#F7D36F"/>
<path d="M17.458 18.3362C17.3126 18.2602 17.1375 18.2714 17.0029 18.3648L16.1494 18.9588V22.5138C16.1494 23.0844 15.8382 23.5831 15.377 23.8507C15.6045 23.9825 15.8681 24.0585 16.1494 24.0585C17.0011 24.0585 17.6942 23.3657 17.6942 22.5138V18.726C17.6942 18.5621 17.6031 18.412 17.458 18.3362Z" fill="#F7D36F"/>
<path d="M9.25531 24.0418C9.10997 23.966 8.93488 23.977 8.8003 24.0706L7.94679 24.6644V28.4553C7.94679 29.0257 7.63551 29.5247 7.17432 29.7923C7.40183 29.9241 7.6655 29.9998 7.94679 29.9998C8.79847 29.9998 9.49152 29.307 9.49152 28.4553V24.4316C9.49152 24.2679 9.40043 24.1178 9.25531 24.0418Z" fill="#F7D36F"/>
<path d="M24.6505 13.581C24.5926 13.4979 24.5491 13.4077 24.5216 13.3136C24.5182 13.3026 24.184 12.1882 23.0288 10.6027C21.9357 9.10265 19.8936 6.92621 16.3732 5.07729C12.8525 3.22838 9.90174 2.78252 8.04619 2.73422C6.08627 2.6825 4.97825 3.04024 4.96726 3.0439C4.87502 3.07411 4.77775 3.08945 4.67772 3.08945C4.67566 3.08945 4.67338 3.08945 4.67177 3.08945C4.55573 3.08945 4.44426 3.13523 4.3621 3.21694C4.27901 3.29911 4.23232 3.4108 4.23186 3.52753L4.13184 27.546C4.13115 27.7101 4.22179 27.8609 4.36713 27.9374C4.43145 27.971 4.50171 27.9877 4.57152 27.9877C4.65987 27.9877 4.74776 27.9612 4.82284 27.909L24.5404 14.1932C24.7397 14.0545 24.7892 13.7803 24.6505 13.581Z" fill="#FFDB57"/>
<path d="M4.36713 27.9374C4.43145 27.9713 4.50148 27.9877 4.57152 27.9877C4.65987 27.9877 4.74776 27.9612 4.82284 27.909L24.5404 14.1932C24.7397 14.0545 24.7889 13.7803 24.6502 13.581C24.5926 13.4979 24.5491 13.4077 24.5214 13.3136C24.5193 13.3063 24.3644 12.7911 23.9054 11.9664L4.13962 25.6708L4.13184 27.5462C4.13115 27.7101 4.22179 27.8612 4.36713 27.9374Z" fill="#F6C134"/>
<path d="M11.7084 9.36815C10.1873 9.36815 8.94971 10.6057 8.94971 12.1266C8.94971 13.6478 10.1873 14.8851 11.7084 14.8851C13.2296 14.8851 14.4669 13.6478 14.4669 12.1266C14.4669 10.6055 13.2296 9.36815 11.7084 9.36815Z" fill="#F2433B"/>
<path d="M11.7084 12.947C10.5283 12.947 9.51917 12.2017 9.12595 11.1576C9.01242 11.4592 8.94971 11.7856 8.94971 12.1267C8.94971 13.6478 10.1873 14.8851 11.7082 14.8851C13.2293 14.8851 14.4669 13.6478 14.4669 12.1267C14.4669 11.7858 14.4042 11.4592 14.2907 11.1576C13.8975 12.2017 12.8885 12.947 11.7084 12.947Z" fill="#D83636"/>
<path d="M6.54513 13.8728C6.03976 13.3557 5.36364 13.0609 4.64129 13.0431C4.52342 13.0415 4.40875 13.085 4.32383 13.1671C4.23914 13.2495 4.19108 13.3626 4.19062 13.4809L4.17139 18.1158C4.17071 18.2341 4.21786 18.3474 4.30209 18.4305C4.38448 18.512 4.49549 18.5575 4.61108 18.5575H4.6184C6.11392 18.5326 7.33043 17.2955 7.33043 15.8C7.33043 15.0753 7.05142 14.3907 6.54513 13.8728Z" fill="#F2433B"/>
<path d="M4.61814 16.5917C4.61562 16.5919 4.61333 16.5919 4.61081 16.5919C4.49523 16.5919 4.38422 16.5464 4.30159 16.4649C4.23774 16.4017 4.19516 16.3209 4.17868 16.2339L4.1709 18.1158C4.17044 18.2341 4.21759 18.3474 4.30159 18.4305C4.38399 18.512 4.495 18.5575 4.61081 18.5575H4.61814C6.11343 18.5326 7.32994 17.2955 7.32994 15.8C7.32994 15.4573 7.26699 15.1241 7.14775 14.813C6.75521 15.8343 5.76964 16.5727 4.61814 16.5917Z" fill="#D83636"/>
<path d="M18.1271 13.8346C16.606 13.8346 15.3687 15.0721 15.3687 16.5931C15.3687 17.7127 16.0372 18.7132 17.0718 19.1421C17.126 19.1645 17.1832 19.1755 17.2402 19.1755C17.3288 19.1755 17.4165 19.149 17.4913 19.0968L20.695 16.8684C20.8177 16.7828 20.8888 16.6409 20.8833 16.4912C20.8291 15.0014 19.6183 13.8346 18.1271 13.8346Z" fill="#F2433B"/>
<path d="M21.744 9.06511C20.883 8.15576 19.8869 7.30501 18.783 6.53665C18.6772 6.46318 18.5451 6.43983 18.4209 6.47187C17.2064 6.78773 16.3584 7.88568 16.3584 9.14156C16.3584 10.6627 17.596 11.9003 19.1169 11.9003C20.5449 11.9003 21.7252 10.8296 21.8623 9.40981C21.8745 9.28301 21.8314 9.15735 21.744 9.06511Z" fill="#F2433B"/>
<path d="M21.3831 8.69592C20.8841 9.41416 20.0539 9.8749 19.1169 9.8749C17.9528 9.8749 16.9556 9.1498 16.5511 8.12784C16.4264 8.4437 16.3584 8.78633 16.3584 9.14156C16.3584 10.6627 17.596 11.9 19.1169 11.9C20.5449 11.9 21.7252 10.8296 21.8623 9.40958C21.8745 9.28301 21.8314 9.15735 21.744 9.06488C21.6264 8.94083 21.5057 8.81792 21.3831 8.69592Z" fill="#D83636"/>
<path d="M12.3999 3.67241C12.3591 3.52226 12.2424 3.40508 12.0925 3.36342C10.7057 2.97981 9.3445 2.7681 8.04628 2.73422C7.9529 2.7317 7.86203 2.73056 7.77277 2.72987C7.77162 2.72987 7.77048 2.72987 7.76933 2.72987C7.61781 2.72987 7.47659 2.80792 7.39626 2.93678C7.1232 3.37418 6.979 3.87863 6.979 4.39522C6.979 5.91637 8.21657 7.15371 9.73749 7.15371C11.2586 7.15371 12.4962 5.91637 12.4962 4.39522C12.4962 4.15146 12.4637 3.90839 12.3999 3.67241Z" fill="#F2433B"/>
<path d="M12.2724 3.46437C11.8496 4.44628 10.8728 5.13567 9.7375 5.13567C8.57226 5.13567 7.5741 4.40897 7.17058 3.38541C7.04469 3.70538 6.979 4.04733 6.979 4.39523C6.979 5.91639 8.21657 7.15395 9.7375 7.15395C11.2587 7.15395 12.496 5.91639 12.496 4.39523C12.496 4.1517 12.4637 3.9084 12.3996 3.67242C12.3777 3.59094 12.3326 3.51953 12.2724 3.46437Z" fill="#D83636"/>
<path d="M13.5524 21.4154C13.1239 20.3797 12.1232 19.7107 11.0029 19.7107C9.48171 19.7107 8.24414 20.948 8.24414 22.4692C8.24414 23.2343 8.56664 23.972 9.12854 24.4927C9.21254 24.5703 9.31966 24.6099 9.42769 24.6099C9.51512 24.6099 9.60279 24.584 9.67878 24.5312L13.3972 21.9446C13.5668 21.8267 13.6313 21.6065 13.5524 21.4154Z" fill="#F2433B"/>
<path d="M27.1443 12.5432C27.0749 12.3068 25.3565 6.71013 17.6496 2.66029C17.6466 2.65868 17.6438 2.65708 17.6409 2.65571C9.93096 -1.39185 4.34714 0.370547 4.11323 0.447452C3.16703 0.758732 2.65044 1.78206 2.96172 2.72826C3.11255 3.18672 3.43276 3.55888 3.86352 3.77632C4.29427 3.99398 4.78408 4.03061 5.23727 3.88137C5.24734 3.87817 6.26953 3.56826 8.02345 3.61381C9.78562 3.65982 12.5935 4.08622 15.9643 5.8564C19.335 7.62658 21.2799 9.69636 22.3178 11.1209C23.351 12.5388 23.6758 13.5567 23.6774 13.5615C23.8136 14.0245 24.1217 14.4068 24.5453 14.6379C24.8147 14.7851 25.11 14.8597 25.4084 14.8597C25.5794 14.8597 25.7515 14.8352 25.9202 14.7856C26.3833 14.6496 26.7655 14.3413 26.9969 13.9176C27.2278 13.4942 27.2802 13.006 27.1443 12.5432Z" fill="#FF9F34"/>
<path d="M26.0912 13.4356C26.0893 13.4297 25.7021 12.2168 24.4711 10.5272C23.234 8.82959 20.9164 6.36316 16.8997 4.25355C12.8828 2.14417 9.5368 1.63605 7.43703 1.58112C5.34665 1.52688 4.12877 1.89629 4.11664 1.90018C3.71495 2.03225 3.28923 2.04186 2.88639 1.93131C2.85229 2.19132 2.87426 2.46278 2.9617 2.72805C3.11253 3.1865 3.43274 3.55866 3.86349 3.7761C4.29425 3.99377 4.78406 4.03039 5.23725 3.88116C5.24732 3.87795 6.26951 3.56805 8.02343 3.6136C9.7856 3.6596 12.5935 4.08601 15.9643 5.85618C19.335 7.62636 21.2798 9.69614 22.3178 11.1207C23.351 12.5386 23.6758 13.5565 23.6774 13.5613C23.8136 14.0243 24.1216 14.4065 24.5453 14.6377C24.8147 14.7849 25.11 14.8595 25.4084 14.8595C25.5794 14.8595 25.7515 14.835 25.9202 14.7853C26.1976 14.7039 26.4459 14.5601 26.6503 14.3669C26.3896 14.1127 26.1967 13.7947 26.0912 13.4356Z" fill="#FB8F2D"/>
<path d="M17.0716 19.1421C17.1259 19.1645 17.1831 19.1755 17.2401 19.1755C17.3286 19.1755 17.4163 19.149 17.4911 19.0968L20.6948 16.8684C20.8175 16.7828 20.8887 16.6409 20.8832 16.4912C20.8564 15.7583 20.5495 15.1039 20.0672 14.6276L15.6079 17.7196C15.8894 18.3506 16.4042 18.8654 17.0716 19.1421Z" fill="#D83636"/>
<path d="M9.12903 24.4927C9.2128 24.5703 9.32015 24.6099 9.42795 24.6099C9.51538 24.6099 9.60327 24.584 9.67903 24.5312L13.3975 21.9446C13.5671 21.8267 13.6316 21.6063 13.5526 21.4154C13.299 20.8022 12.8447 20.3177 12.2837 20.0242L8.2666 22.8095C8.34694 23.4497 8.65089 24.0498 9.12903 24.4927Z" fill="#D83636"/>
</g>
<defs>
<clipPath id="clip0">
<rect width="30" height="30" fill="white"/>
</clipPath>
</defs>
</svg>
