<svg width="30" height="30" viewBox="0 0 30 30" fill="none" xmlns="http://www.w3.org/2000/svg">
<path d="M26.8375 14.475L18.8125 6.4625C18.6081 6.2569 18.3385 6.12875 18.05 6.1L6.3625 5C6.17942 4.98317 5.99487 5.00692 5.82202 5.06958C5.64917 5.13224 5.49227 5.23226 5.3625 5.3625C5.23226 5.49227 5.13224 5.64917 5.06958 5.82202C5.00692 5.99487 4.98317 6.17942 5 6.36251L6.1 18.05C6.12875 18.3385 6.2569 18.6081 6.4625 18.8125L14.475 26.8375C14.9047 27.2614 15.4839 27.4993 16.0875 27.5C16.6873 27.4987 17.2624 27.2606 17.6875 26.8375L26.8375 17.6875C27.2627 17.2611 27.5014 16.6834 27.5014 16.0813C27.5014 15.4791 27.2627 14.9015 26.8375 14.475V14.475ZM14.45 14.475C14.1879 14.7375 13.8538 14.9163 13.49 14.9888C13.1262 15.0613 12.7491 15.0243 12.4064 14.8825C12.0636 14.7407 11.7706 14.5003 11.5645 14.1919C11.3584 13.8835 11.2484 13.5209 11.2484 13.15C11.2484 12.7791 11.3584 12.4165 11.5645 12.1081C11.7706 11.7997 12.0636 11.5594 12.4064 11.4175C12.7491 11.2757 13.1262 11.2387 13.49 11.3112C13.8538 11.3837 14.1879 11.5625 14.45 11.825C14.7966 12.1739 14.991 12.6457 14.991 13.1375C14.991 13.6293 14.7966 14.1011 14.45 14.45V14.475Z" fill="#F2B41C"/>
</svg>
